<?xml version="1.0" encoding="UTF-8" standalone="no"?>
<svg
   xmlns:dc="http://purl.org/dc/elements/1.1/"
   xmlns:cc="http://creativecommons.org/ns#"
   xmlns:rdf="http://www.w3.org/1999/02/22-rdf-syntax-ns#"
   xmlns:svg="http://www.w3.org/2000/svg"
   xmlns="http://www.w3.org/2000/svg"
   viewBox="0 0 1481.5732 793.70667"
   height="793.70667"
   width="1481.5732"
   xml:space="preserve"
   id="svg2"
   version="1.1"><metadata
     id="metadata8"><rdf:RDF><cc:Work
         rdf:about=""><dc:format>image/svg+xml</dc:format><dc:type
           rdf:resource="http://purl.org/dc/dcmitype/StillImage" /></cc:Work></rdf:RDF></metadata><defs
     id="defs6" /><g
     transform="matrix(1.3333333,0,0,-1.3333333,0,793.70667)"
     id="g10"><g
       transform="scale(0.1)"
       id="g12"><path
         id="path14"
         style="fill:none;stroke:#2f251b;stroke-width:10;stroke-linecap:butt;stroke-linejoin:miter;stroke-miterlimit:4;stroke-dasharray:none;stroke-opacity:1"
         d="m 682.402,3004.73 v -231.77 h 5 c 149.512,0 299.032,0 448.538,0 -0.33,-677 -0.66,-1353.95 -1,-2030.948 -72.14,0 -144.292,0 -216.436,0 0.223,603.068 0.449,1206.108 0.672,1809.168 v 5.01 h -5 -226.774 -5 v -5 c -0.113,-603.07 -0.222,-1206.11 -0.336,-1809.178 -72.144,0 -144.289,0 -216.433,0 0.222,1432.678 0.449,2865.348 0.668,4298.028 72.144,0 144.293,0 216.437,0 -0.113,-602.85 -0.226,-1205.69 -0.336,-1808.54 v -5 h 5 226.774 5 v 5 c 0,603.06 0.004,1206.11 0,1809.17 72.14,0 144.294,0 216.434,0 0.11,-676.99 0.22,-1353.95 0.33,-2030.94 -149.506,0 -299.026,0 -448.538,0 h -5 z" /><path
         id="path16"
         style="fill:none;stroke:#2f251b;stroke-width:10;stroke-linecap:butt;stroke-linejoin:miter;stroke-miterlimit:4;stroke-dasharray:none;stroke-opacity:1"
         d="m 1374.13,4587.13 c -0.47,-1281.74 -0.94,-2563.37 -1.41,-3845.118 223.45,0 446.87,0 670.31,0 0,1281.748 0,2563.368 0,3845.118 -222.95,0 -445.94,0 -668.9,0 z M 1816.26,968.781 c -72.26,0 -144.51,0 -216.77,0 0,1130.539 0,2261.039 0,3391.579 72.26,0 144.51,0 216.77,0 0,-1130.54 0,-2261.04 0,-3391.579 z" /><path
         id="path18"
         style="fill:none;stroke:#2f251b;stroke-width:10;stroke-linecap:butt;stroke-linejoin:miter;stroke-miterlimit:4;stroke-dasharray:none;stroke-opacity:1"
         d="m 1372.72,5040.67 c 72.26,0 144.51,0 216.77,0 0,-72.26 0,-144.51 0,-216.77 -72.26,0 -144.51,0 -216.77,0 v 214.03 c 0,0.91 0,1.83 0,2.74 z" /><path
         id="path20"
         style="fill:none;stroke:#2f251b;stroke-width:10;stroke-linecap:butt;stroke-linejoin:miter;stroke-miterlimit:4;stroke-dasharray:none;stroke-opacity:1"
         d="m 1826.26,5040.67 c 72.26,0 144.51,0 216.77,0 0,-72.26 0,-144.51 0,-216.77 -72.26,0 -144.51,0 -216.77,0 v 214.03 c 0,0.91 0,1.83 0,2.74 z" /><path
         id="path22"
         style="fill:none;stroke:#2f251b;stroke-width:10;stroke-linecap:butt;stroke-linejoin:miter;stroke-miterlimit:4;stroke-dasharray:none;stroke-opacity:1"
         d="m 2950.12,742.012 c -223.45,0 -446.87,0 -670.32,0 0,72.258 0,144.519 0,216.769 149.51,0 299.04,0 448.55,0 h 5 v 5 1814.179 5 h -5 c -149.51,0 -299.04,0 -448.55,0 0,752.58 0,1505.13 0,2257.72 223.45,0 446.87,0 670.32,0 0,-72.27 0,-144.52 0,-216.78 -149.51,0 -299.03,0 -448.54,0 h -5 v -5 -1814.17 -5 h 5 c 149.51,0 299.03,0 448.54,0 0,-752.58 0,-1505.13 0,-2257.718 z" /><path
         id="path24"
         style="fill:none;stroke:#2f251b;stroke-width:10;stroke-linecap:butt;stroke-linejoin:miter;stroke-miterlimit:4;stroke-dasharray:none;stroke-opacity:1"
         d="m 3857.2,5040.97 c 0,-72.26 0,-144.51 0,-216.77 -73.92,0 -147.84,0 -221.77,0 h -5 v -5 c 0,-1358.97 0,-2717.92 0,-4076.891 -72.26,0 -144.51,0 -216.77,0 0,1358.971 0,2717.921 0,4076.891 v 5 h -5 c -73.92,0 -147.85,0 -221.77,0 0,72.26 0,144.51 0,216.77 223.45,0 446.87,0 670.31,0 z" /><path
         id="path26"
         style="fill:none;stroke:#2f251b;stroke-width:10;stroke-linecap:butt;stroke-linejoin:miter;stroke-miterlimit:4;stroke-dasharray:none;stroke-opacity:1"
         d="M 4310.75,4818.9 V 2999.73 h 5 c 149.51,0 299.03,0 448.54,0 0,-72.26 0,-144.51 0,-216.77 -149.51,0 -299.03,0 -448.54,0 h -5 v -5 -1814.179 -5 h 5 c 149.51,0 299.03,0 448.54,0 0,-72.261 0,-144.511 0,-216.769 -223.45,0 -446.86,0 -670.31,0 0,1432.638 0.02,2865.268 0.02,4297.918 223.43,0.24 446.87,0.49 670.29,0.74 0,-72.26 0,-144.51 0,-216.77 -149.51,0 -299.03,0 -448.54,0 h -5 z" /><path
         id="path28"
         style="fill:none;stroke:#2f251b;stroke-width:10;stroke-linecap:butt;stroke-linejoin:miter;stroke-miterlimit:4;stroke-dasharray:none;stroke-opacity:1"
         d="m 5001.07,5040.97 c 1.76,-1432.89 3.52,-2865.77 5.28,-4298.661 69.89,0 139.78,0 209.67,0 0.6,603.061 1.21,1206.111 1.81,1809.181 l 0.01,4.99 h 4.99 226.78 5 v -5 c 0,-603.06 0,-1206.11 0,-1809.171 72.26,0 144.51,0 216.77,0 0,676.991 0,1353.951 0,2030.941 -149.51,0 -299.03,0 -448.55,0 h -5 v 5 226.78 5 h 5 c 149.52,0 299.04,0 448.55,0 0,676.99 0,1353.94 0,2030.94 -223.44,0 -446.87,0 -670.31,0 z M 5444.61,3236.8 c -72.26,0 -144.51,0 -216.78,0 0,525.77 0,1051.62 0,1577.4 72.26,0 144.52,0 216.78,0 0,-525.78 0,-1051.63 0,-1577.4 z" /><path
         id="path30"
         style="fill:none;stroke:#2f251b;stroke-width:10;stroke-linecap:butt;stroke-linejoin:miter;stroke-miterlimit:4;stroke-dasharray:none;stroke-opacity:1"
         d="m 7036.58,5040.97 c 0,-1432.89 0,-2865.77 0,-4298.661 -72.26,0 -144.52,0 -216.78,0 0,1358.971 0,2717.921 0,4076.891 v 5 h -5 -226.77 -5 v -5 c 0,-1358.87 0,-2717.72 0,-4076.591 -72.26,0 -144.51,0 -216.77,0 0,1358.871 0,2717.721 0,4076.591 v 5 h -5 -226.77 -5 v -5 c 0,-1358.87 0,-2717.73 0,-4076.598 -72.26,-0.09 -144.52,-0.192 -216.78,-0.282 -1.52,1432.99 -3.04,2865.96 -4.55,4298.95 376.14,-0.1 752.28,-0.2 1128.42,-0.3 z" /><path
         id="path32"
         style="fill:none;stroke:#2f251b;stroke-width:10;stroke-linecap:butt;stroke-linejoin:miter;stroke-miterlimit:4;stroke-dasharray:none;stroke-opacity:1"
         d="M 7485.55,4818.9 V 2999.73 h 5 c 149.51,0 299.03,0 448.54,0 0,-72.26 0,-144.51 0,-216.77 -149.51,0 -299.03,0 -448.54,0 h -5 v -5 -1814.179 -5 h 5 c 149.51,0 299.03,0 448.54,0 0,-72.261 0,-144.511 0,-216.769 -223.45,0 -446.86,0 -670.31,0 0.01,1432.638 0.02,2865.268 0.03,4297.918 223.42,0.24 446.86,0.49 670.28,0.74 0,-72.26 0,-144.51 0,-216.77 -149.51,0 -299.03,0 -448.54,0 h -5 z" /><path
         id="path34"
         style="fill:none;stroke:#2f251b;stroke-width:10;stroke-linecap:butt;stroke-linejoin:miter;stroke-miterlimit:4;stroke-dasharray:none;stroke-opacity:1"
         d="m 8846.18,5040.68 c 0,-1432.89 0,-2865.78 0,-4298.668 -72.26,0 -144.51,0 -216.77,0 0,1358.968 0,2717.918 0,4076.888 v 5 h -5 -226.77 -5 v -5 c 0,-1358.97 0,-2717.92 0,-4076.888 -72.26,0 -144.51,0 -216.77,0 0,1432.888 0,2865.768 0,4298.668 223.45,0 446.86,0 670.31,0 z" /><path
         id="path36"
         style="fill:none;stroke:#2f251b;stroke-width:10;stroke-linecap:butt;stroke-linejoin:miter;stroke-miterlimit:4;stroke-dasharray:none;stroke-opacity:1"
         d="M 10206.8,4818.9 V 2999.73 h 5 c 149.5,0 299,0 448.6,0 0,-72.26 0,-144.51 0,-216.77 -149.6,0 -299.1,0 -448.6,0 h -5 v -5 -1814.179 -5 h 5 c 149.5,0 299,0 448.6,0 0,-72.261 0,-144.511 0,-216.769 -223.5,0 -446.9,0 -670.36,0 0.01,1432.638 0.02,2865.268 0.03,4297.918 223.43,0.24 446.83,0.49 670.33,0.74 0,-72.26 0,-144.51 0,-216.77 -149.6,0 -299.1,0 -448.6,0 h -5 z" /><path
         id="path38"
         style="fill:none;stroke:#2f251b;stroke-width:10;stroke-linecap:butt;stroke-linejoin:miter;stroke-miterlimit:4;stroke-dasharray:none;stroke-opacity:1"
         d="m 9299.72,3004.73 v -231.77 h 5 c 149.52,0 299.03,0 448.55,0 -0.34,-677 -0.67,-1353.95 -1.01,-2030.948 -72.14,0 -144.29,0 -216.43,0 0.22,603.068 0.44,1206.108 0.67,1809.168 v 5.01 h -5 -226.78 -4.99 l -0.01,-5 c -0.11,-603.07 -0.22,-1206.11 -0.33,-1809.178 -72.14,0 -144.29,0 -216.44,0 0.23,1432.678 0.46,2865.348 0.67,4298.028 72.15,0 144.3,0 216.44,0 -0.11,-602.85 -0.22,-1205.69 -0.34,-1808.54 v -5 h 5 226.78 5 v 5 c 0,603.06 0,1206.11 0,1809.17 72.14,0 144.29,0 216.43,0 0.11,-676.99 0.23,-1353.95 0.34,-2030.94 -149.51,0 -299.03,0 -448.55,0 h -5 z" /></g></g></svg>